# xmcd CD database file
#
# Track frame offsets:
#	150
#	13000
#	27115
#	40487
#	54277
#	66842
#	79437
#	93217
#	107277
#	121312
#	134805
#	149692
#	165402
#	176927
#	190425
#	201555
#	213002
#	224982
#	236500
#	248710
#
# Disc length: 3510 seconds
#
# Revision: 2
# Processed by: cddbd v1.5.2PL0 Copyright (c) Steve Scherf et al.
# Submitted via: CDex 1.51
#
DISCID=300db414
DTITLE=Count Basie - Blues and Boogie Woogie  {1937-1947}
DYEAR=1998
DGENRE=Jazz
TTITLE0=Boogie Woogie  (I May Be Wrong )  [1937]
TTITLE1=Good Morning Blues n°2  [1937]
TTITLE2=How Long, How Long Blues  [1938]
TTITLE3=Dirty Dozens  [1938]
TTITLE4=Hey Lawdy Mama  [1938]
TTITLE5=The Fives  [1938]
TTITLE6=Boogie Woogie  [1938]
TTITLE7=Feather Merchant  [1941]
TTITLE8=One O'Clock Jump  [1942]
TTITLE9=How Long Blues  [1942]
TTITLE10=Cafe Society Blues  [1942]
TTITLE11=Way Back Blues  [1942]
TTITLE12=Red Bank Boogie  [1944-46]
TTITLE13=The Mad Boogie  [1944-46]
TTITLE14=Hob Nail Boogie  [1944-46]
TTITLE15=Wild Bill's Boogie  [1944-46]
TTITLE16=Saint-Louis Boogie  [1947]
TTITLE17=Backstage At Stuff's  [1947]
TTITLE18=House Rent Boogie  [1947]
TTITLE19=Jump, Lester, Jump  [1944]
EXTD=YEAR: 1998
EXTT0=
EXTT1=
EXTT2=
EXTT3=
EXTT4=
EXTT5=
EXTT6=
EXTT7=
EXTT8=
EXTT9=
EXTT10=
EXTT11=
EXTT12=
EXTT13=
EXTT14=
EXTT15=
EXTT16=
EXTT17=
EXTT18=
EXTT19=
PLAYORDER=
